# xmcd
#
# Track frame offsets: 
#        150
#        13050
#        22547
#        33580
#        45155
#        57390
#        69642
#        81557
#        90877
#        105330
#
# Disc length: 1585 seconds
#
# Revision: 3
# Processed by: cddbd v1.5.2PL0 Copyright (c) Steve Scherf et al.
# Submitted via: ExactAudioCopyFreeDBPlugin 1.0
#
DISCID=6b062f0a
DTITLE=Ernest Tubb - Retrospective - Volume 2
DYEAR=1900
DGENRE=country
TTITLE0=Too Old To Cut The Mustard
TTITLE1=Boogie Woogie Baby
TTITLE2=Thirty Days
TTITLE3=Thanks A Lot
TTITLE4=Mr. and Mrs. Used To Be
TTITLE5=Pass The Booze
TTITLE6=Waltz Across Texas
TTITLE7=Walking The Floor Over You
TTITLE8=Hey La La
TTITLE9=Driftwood On The River
EXTD=
EXTT0=
EXTT1=
EXTT2=
EXTT3=
EXTT4=
EXTT5=
EXTT6=
EXTT7=
EXTT8=
EXTT9=
PLAYORDER=
